<mxfile host="app.diagrams.net" agent="Mozilla/5.0 (Windows NT 10.0; Win64; x64) AppleWebKit/537.36 (KHTML, like Gecko) Chrome/133.0.0.0 Safari/537.36" version="26.0.16">
  <diagram name="Page-1" id="kv7-iJnYmjtBgQNiHRv9">
    <mxGraphModel dx="2438" dy="1992" grid="1" gridSize="10" guides="1" tooltips="1" connect="1" arrows="1" fold="1" page="1" pageScale="1" pageWidth="850" pageHeight="1100" math="0" shadow="0">
      <root>
        <mxCell id="0" />
        <mxCell id="1" parent="0" />
        <mxCell id="RU6ulck9YAmI_0JQSv8K-1" value="" style="rounded=1;whiteSpace=wrap;html=1;align=left;verticalAlign=top;labelPosition=center;verticalLabelPosition=middle;labelBackgroundColor=default;" vertex="1" parent="1">
          <mxGeometry x="-100" y="110" width="780" height="590" as="geometry" />
        </mxCell>
        <mxCell id="RU6ulck9YAmI_0JQSv8K-9" value="VPC" style="sketch=0;outlineConnect=0;gradientColor=none;html=1;whiteSpace=wrap;fontSize=12;fontStyle=0;shape=mxgraph.aws4.group;grIcon=mxgraph.aws4.group_vpc;strokeColor=#879196;fillColor=none;verticalAlign=top;align=left;spacingLeft=30;fontColor=#879196;dashed=0;" vertex="1" parent="1">
          <mxGeometry x="-55" y="220" width="690" height="456" as="geometry" />
        </mxCell>
        <mxCell id="RU6ulck9YAmI_0JQSv8K-2" value="C2 Server&lt;div&gt;Mythic&lt;/div&gt;" style="sketch=0;outlineConnect=0;fontColor=#232F3E;gradientColor=none;fillColor=#FF0000;strokeColor=none;dashed=0;verticalLabelPosition=bottom;verticalAlign=top;align=center;html=1;fontSize=12;fontStyle=0;aspect=fixed;pointerEvents=1;shape=mxgraph.aws4.servers;" vertex="1" parent="1">
          <mxGeometry x="581" y="-10" width="78" height="78" as="geometry" />
        </mxCell>
        <mxCell id="RU6ulck9YAmI_0JQSv8K-20" style="edgeStyle=orthogonalEdgeStyle;rounded=0;orthogonalLoop=1;jettySize=auto;html=1;startArrow=classic;startFill=1;fillColor=#fff2cc;strokeColor=#d6b656;dashed=1;dashPattern=12 12;" edge="1" parent="1" source="RU6ulck9YAmI_0JQSv8K-3" target="RU6ulck9YAmI_0JQSv8K-7">
          <mxGeometry relative="1" as="geometry" />
        </mxCell>
        <mxCell id="RU6ulck9YAmI_0JQSv8K-21" value="Alerts/Tcikets" style="edgeLabel;html=1;align=center;verticalAlign=middle;resizable=0;points=[];" vertex="1" connectable="0" parent="RU6ulck9YAmI_0JQSv8K-20">
          <mxGeometry x="-0.0844" y="-1" relative="1" as="geometry">
            <mxPoint as="offset" />
          </mxGeometry>
        </mxCell>
        <mxCell id="RU6ulck9YAmI_0JQSv8K-3" value="OS Ticket Server" style="sketch=0;outlineConnect=0;fillColor=#f0a30a;strokeColor=#BD7000;dashed=0;verticalLabelPosition=bottom;verticalAlign=top;align=center;html=1;fontSize=12;fontStyle=0;aspect=fixed;pointerEvents=1;shape=mxgraph.aws4.servers;fontColor=#000000;" vertex="1" parent="1">
          <mxGeometry x="500" y="250" width="78" height="78" as="geometry" />
        </mxCell>
        <mxCell id="RU6ulck9YAmI_0JQSv8K-16" style="edgeStyle=orthogonalEdgeStyle;rounded=0;orthogonalLoop=1;jettySize=auto;html=1;" edge="1" parent="1" source="RU6ulck9YAmI_0JQSv8K-4" target="RU6ulck9YAmI_0JQSv8K-5">
          <mxGeometry relative="1" as="geometry" />
        </mxCell>
        <mxCell id="RU6ulck9YAmI_0JQSv8K-18" value="Managed" style="edgeLabel;html=1;align=center;verticalAlign=middle;resizable=0;points=[];" vertex="1" connectable="0" parent="RU6ulck9YAmI_0JQSv8K-16">
          <mxGeometry x="-0.0307" y="-6" relative="1" as="geometry">
            <mxPoint as="offset" />
          </mxGeometry>
        </mxCell>
        <mxCell id="RU6ulck9YAmI_0JQSv8K-27" style="rounded=0;orthogonalLoop=1;jettySize=auto;html=1;fillColor=#dae8fc;strokeColor=#6c8ebf;dashed=1;dashPattern=12 12;" edge="1" parent="1" source="RU6ulck9YAmI_0JQSv8K-4" target="RU6ulck9YAmI_0JQSv8K-7">
          <mxGeometry relative="1" as="geometry" />
        </mxCell>
        <mxCell id="RU6ulck9YAmI_0JQSv8K-29" value="Forward Logs via Agent" style="edgeLabel;html=1;align=center;verticalAlign=middle;resizable=0;points=[];" vertex="1" connectable="0" parent="RU6ulck9YAmI_0JQSv8K-27">
          <mxGeometry x="-0.0177" relative="1" as="geometry">
            <mxPoint x="-1" as="offset" />
          </mxGeometry>
        </mxCell>
        <mxCell id="RU6ulck9YAmI_0JQSv8K-4" value="Ubuntu Server&amp;nbsp;&lt;div&gt;SSH Enabled&lt;/div&gt;" style="sketch=0;outlineConnect=0;fontColor=#232F3E;gradientColor=none;fillColor=#232F3D;strokeColor=none;dashed=0;verticalLabelPosition=bottom;verticalAlign=top;align=center;html=1;fontSize=12;fontStyle=0;aspect=fixed;pointerEvents=1;shape=mxgraph.aws4.servers;" vertex="1" parent="1">
          <mxGeometry x="520" y="560" width="78" height="78" as="geometry" />
        </mxCell>
        <mxCell id="RU6ulck9YAmI_0JQSv8K-19" style="edgeStyle=orthogonalEdgeStyle;rounded=0;orthogonalLoop=1;jettySize=auto;html=1;startArrow=classic;startFill=1;fillColor=#ffe6cc;strokeColor=#d79b00;dashed=1;dashPattern=12 12;" edge="1" parent="1" source="RU6ulck9YAmI_0JQSv8K-5" target="RU6ulck9YAmI_0JQSv8K-7">
          <mxGeometry relative="1" as="geometry" />
        </mxCell>
        <mxCell id="RU6ulck9YAmI_0JQSv8K-25" value="Managed Agents" style="edgeLabel;html=1;align=center;verticalAlign=middle;resizable=0;points=[];" vertex="1" connectable="0" parent="RU6ulck9YAmI_0JQSv8K-19">
          <mxGeometry x="-0.0933" y="3" relative="1" as="geometry">
            <mxPoint as="offset" />
          </mxGeometry>
        </mxCell>
        <mxCell id="RU6ulck9YAmI_0JQSv8K-5" value="Fleet Server" style="sketch=0;outlineConnect=0;fillColor=#76608a;strokeColor=#432D57;dashed=0;verticalLabelPosition=bottom;verticalAlign=top;align=center;html=1;fontSize=12;fontStyle=0;aspect=fixed;pointerEvents=1;shape=mxgraph.aws4.servers;gradientDirection=radial;fontColor=#ffffff;" vertex="1" parent="1">
          <mxGeometry x="251" y="560" width="78" height="78" as="geometry" />
        </mxCell>
        <mxCell id="RU6ulck9YAmI_0JQSv8K-13" style="edgeStyle=orthogonalEdgeStyle;rounded=0;orthogonalLoop=1;jettySize=auto;html=1;" edge="1" parent="1" source="RU6ulck9YAmI_0JQSv8K-6" target="RU6ulck9YAmI_0JQSv8K-5">
          <mxGeometry relative="1" as="geometry" />
        </mxCell>
        <mxCell id="RU6ulck9YAmI_0JQSv8K-17" value="Managed" style="edgeLabel;html=1;align=center;verticalAlign=middle;resizable=0;points=[];" vertex="1" connectable="0" parent="RU6ulck9YAmI_0JQSv8K-13">
          <mxGeometry x="-0.0204" y="-3" relative="1" as="geometry">
            <mxPoint x="-1" as="offset" />
          </mxGeometry>
        </mxCell>
        <mxCell id="RU6ulck9YAmI_0JQSv8K-26" style="rounded=0;orthogonalLoop=1;jettySize=auto;html=1;fillColor=#dae8fc;strokeColor=#6c8ebf;dashed=1;dashPattern=12 12;" edge="1" parent="1" source="RU6ulck9YAmI_0JQSv8K-6" target="RU6ulck9YAmI_0JQSv8K-7">
          <mxGeometry relative="1" as="geometry" />
        </mxCell>
        <mxCell id="RU6ulck9YAmI_0JQSv8K-28" value="Forward Logs via Agent" style="edgeLabel;html=1;align=center;verticalAlign=middle;resizable=0;points=[];" vertex="1" connectable="0" parent="RU6ulck9YAmI_0JQSv8K-26">
          <mxGeometry x="-0.0131" y="1" relative="1" as="geometry">
            <mxPoint as="offset" />
          </mxGeometry>
        </mxCell>
        <mxCell id="RU6ulck9YAmI_0JQSv8K-6" value="Windows Server&amp;nbsp;&lt;div&gt;RDP enabled&lt;/div&gt;" style="sketch=0;outlineConnect=0;fontColor=#232F3E;gradientColor=none;fillColor=#232F3D;strokeColor=none;dashed=0;verticalLabelPosition=bottom;verticalAlign=top;align=center;html=1;fontSize=12;fontStyle=0;aspect=fixed;pointerEvents=1;shape=mxgraph.aws4.servers;" vertex="1" parent="1">
          <mxGeometry x="-30" y="560" width="78" height="78" as="geometry" />
        </mxCell>
        <mxCell id="RU6ulck9YAmI_0JQSv8K-7" value="Elastic &amp;amp; Kibana" style="sketch=0;outlineConnect=0;fillColor=#1ba1e2;strokeColor=#006EAF;dashed=0;verticalLabelPosition=bottom;verticalAlign=top;align=center;html=1;fontSize=12;fontStyle=0;aspect=fixed;pointerEvents=1;shape=mxgraph.aws4.servers;fontColor=light-dark(#000000, #121212);" vertex="1" parent="1">
          <mxGeometry x="251" y="250" width="78" height="78" as="geometry" />
        </mxCell>
        <mxCell id="RU6ulck9YAmI_0JQSv8K-12" value="Vultr Cloud" style="text;html=1;align=center;verticalAlign=middle;whiteSpace=wrap;rounded=0;fontStyle=1" vertex="1" parent="1">
          <mxGeometry x="-60" y="170" width="80" height="50" as="geometry" />
        </mxCell>
        <mxCell id="RU6ulck9YAmI_0JQSv8K-31" value="Network: 172.31.0.0/20&#xa;IP Range: 172.31.0.1 to 172.31.15.254&#xa;Subnet Mask: 255.255.240" style="text;html=1;align=left;verticalAlign=middle;whiteSpace=wrap;rounded=0;fontStyle=0;fontSize=13;" vertex="1" parent="1">
          <mxGeometry x="-50" y="250" width="250" height="80" as="geometry" />
        </mxCell>
        <mxCell id="RU6ulck9YAmI_0JQSv8K-36" style="edgeStyle=orthogonalEdgeStyle;rounded=0;orthogonalLoop=1;jettySize=auto;html=1;" edge="1" parent="1" source="RU6ulck9YAmI_0JQSv8K-32" target="RU6ulck9YAmI_0JQSv8K-9">
          <mxGeometry relative="1" as="geometry" />
        </mxCell>
        <mxCell id="RU6ulck9YAmI_0JQSv8K-32" value="Internet Gateway" style="outlineConnect=0;dashed=0;verticalLabelPosition=bottom;verticalAlign=top;align=center;html=1;shape=mxgraph.aws3.internet_gateway;fillColor=#F58536;gradientColor=none;" vertex="1" parent="1">
          <mxGeometry x="267.5" y="128" width="45" height="52" as="geometry" />
        </mxCell>
        <mxCell id="RU6ulck9YAmI_0JQSv8K-34" value="Internet" style="ellipse;shape=cloud;whiteSpace=wrap;html=1;" vertex="1" parent="1">
          <mxGeometry x="230" y="-157.5" width="120" height="80" as="geometry" />
        </mxCell>
        <mxCell id="RU6ulck9YAmI_0JQSv8K-35" style="edgeStyle=orthogonalEdgeStyle;rounded=0;orthogonalLoop=1;jettySize=auto;html=1;entryX=0.5;entryY=0;entryDx=0;entryDy=0;entryPerimeter=0;" edge="1" parent="1" source="RU6ulck9YAmI_0JQSv8K-34" target="RU6ulck9YAmI_0JQSv8K-32">
          <mxGeometry relative="1" as="geometry" />
        </mxCell>
        <mxCell id="RU6ulck9YAmI_0JQSv8K-37" value="SOC Analyst Laptop" style="verticalLabelPosition=bottom;html=1;verticalAlign=top;align=center;strokeColor=#001DBC;fillColor=#0050ef;shape=mxgraph.azure.laptop;pointerEvents=1;fontColor=#000000;" vertex="1" parent="1">
          <mxGeometry x="-90" y="-155" width="120" height="85" as="geometry" />
        </mxCell>
        <mxCell id="RU6ulck9YAmI_0JQSv8K-38" style="rounded=0;orthogonalLoop=1;jettySize=auto;html=1;exitX=0.92;exitY=0.5;exitDx=0;exitDy=0;exitPerimeter=0;entryX=0.16;entryY=0.55;entryDx=0;entryDy=0;entryPerimeter=0;" edge="1" parent="1" source="RU6ulck9YAmI_0JQSv8K-37" target="RU6ulck9YAmI_0JQSv8K-34">
          <mxGeometry relative="1" as="geometry" />
        </mxCell>
        <mxCell id="RU6ulck9YAmI_0JQSv8K-39" value="Connect to Elastic/Kibana via Web GUI" style="edgeLabel;html=1;align=center;verticalAlign=middle;resizable=0;points=[];" vertex="1" connectable="0" parent="RU6ulck9YAmI_0JQSv8K-38">
          <mxGeometry x="-0.0199" relative="1" as="geometry">
            <mxPoint x="3" as="offset" />
          </mxGeometry>
        </mxCell>
        <mxCell id="RU6ulck9YAmI_0JQSv8K-45" style="rounded=0;orthogonalLoop=1;jettySize=auto;html=1;exitX=0.08;exitY=0.5;exitDx=0;exitDy=0;exitPerimeter=0;" edge="1" parent="1" source="RU6ulck9YAmI_0JQSv8K-41" target="RU6ulck9YAmI_0JQSv8K-34">
          <mxGeometry relative="1" as="geometry" />
        </mxCell>
        <mxCell id="RU6ulck9YAmI_0JQSv8K-41" value="&lt;font style=&quot;color: rgb(0, 0, 0);&quot;&gt;Attacker Laptop&lt;/font&gt;&lt;div&gt;&lt;font style=&quot;color: rgb(0, 0, 0);&quot;&gt;Kali Linux&lt;/font&gt;&lt;/div&gt;" style="verticalLabelPosition=bottom;html=1;verticalAlign=top;align=center;strokeColor=#B20000;fillColor=#e51400;shape=mxgraph.azure.laptop;pointerEvents=1;fontColor=#ffffff;" vertex="1" parent="1">
          <mxGeometry x="560" y="-157.5" width="120" height="85" as="geometry" />
        </mxCell>
        <mxCell id="RU6ulck9YAmI_0JQSv8K-44" style="rounded=0;orthogonalLoop=1;jettySize=auto;html=1;entryX=0.96;entryY=0.7;entryDx=0;entryDy=0;entryPerimeter=0;" edge="1" parent="1" source="RU6ulck9YAmI_0JQSv8K-2" target="RU6ulck9YAmI_0JQSv8K-34">
          <mxGeometry relative="1" as="geometry" />
        </mxCell>
      </root>
    </mxGraphModel>
  </diagram>
</mxfile>
